<?xml version="1.0" encoding="UTF-8" standalone="no"?>
<!DOCTYPE svg PUBLIC "-//W3C//DTD SVG 1.1//EN"
 "http://www.w3.org/Graphics/SVG/1.1/DTD/svg11.dtd">
<!-- Generated by graphviz version 16.1.0 (0)
 -->
<!-- Title: drain_anomaly_flow Pages: 1 -->
<svg width="416pt" height="646pt"
 viewBox="0.00 0.00 416.00 646.00" xmlns="http://www.w3.org/2000/svg" xmlns:xlink="http://www.w3.org/1999/xlink">
<g id="graph0" class="graph" transform="scale(1 1) rotate(0) translate(14.4 632.02)">
<title>drain_anomaly_flow</title>
<polygon fill="white" stroke="none" points="-14.4,14.4 -14.4,-632.02 401.94,-632.02 401.94,14.4 -14.4,14.4"/>
<!-- incoming -->
<g id="node1" class="node">
<title>incoming</title>
<path fill="#ddf4ff" stroke="#0969da" d="M371.17,-617.62C371.17,-617.62 21.25,-617.62 21.25,-617.62 15.25,-617.62 9.25,-611.62 9.25,-605.62 9.25,-605.62 9.25,-585.22 9.25,-585.22 9.25,-579.22 15.25,-573.22 21.25,-573.22 21.25,-573.22 371.17,-573.22 371.17,-573.22 377.17,-573.22 383.17,-579.22 383.17,-585.22 383.17,-585.22 383.17,-605.62 383.17,-605.62 383.17,-611.62 377.17,-617.62 371.17,-617.62"/>
<text xml:space="preserve" text-anchor="middle" x="196.21" y="-598.07" font-family="Helvetica,sans-Serif" font-size="13.00">Incoming log:</text>
<text xml:space="preserve" text-anchor="middle" x="196.21" y="-583.07" font-family="Helvetica,sans-Serif" font-size="13.00">Teardown TCP connection 1002045 for outside:192.168.1.5...</text>
</g>
<!-- t1 -->
<g id="node2" class="node">
<title>t1</title>
<path fill="#f6f8fa" stroke="#57606a" d="M274.79,-540.22C274.79,-540.22 117.62,-540.22 117.62,-540.22 111.62,-540.22 105.62,-534.22 105.62,-528.22 105.62,-528.22 105.62,-516.22 105.62,-516.22 105.62,-510.22 111.62,-504.22 117.62,-504.22 117.62,-504.22 274.79,-504.22 274.79,-504.22 280.79,-504.22 286.79,-510.22 286.79,-516.22 286.79,-516.22 286.79,-528.22 286.79,-528.22 286.79,-534.22 280.79,-540.22 274.79,-540.22"/>
<text xml:space="preserve" text-anchor="middle" x="196.21" y="-517.37" font-family="Helvetica,sans-Serif" font-size="13.00">Tokenize log by whitespace</text>
</g>
<!-- incoming&#45;&gt;t1 -->
<g id="edge1" class="edge">
<title>incoming&#45;&gt;t1</title>
<path fill="none" stroke="#57606a" d="M196.21,-573.06C196.21,-565.36 196.21,-556.59 196.21,-548.58"/>
<polygon fill="#57606a" stroke="#57606a" points="198.66,-548.79 196.21,-541.79 193.76,-548.79 198.66,-548.79"/>
</g>
<!-- t2 -->
<g id="node3" class="node">
<title>t2</title>
<path fill="#f6f8fa" stroke="#57606a" d="M292.79,-471.22C292.79,-471.22 99.62,-471.22 99.62,-471.22 93.62,-471.22 87.62,-465.22 87.62,-459.22 87.62,-459.22 87.62,-438.82 87.62,-438.82 87.62,-432.82 93.62,-426.82 99.62,-426.82 99.62,-426.82 292.79,-426.82 292.79,-426.82 298.79,-426.82 304.79,-432.82 304.79,-438.82 304.79,-438.82 304.79,-459.22 304.79,-459.22 304.79,-465.22 298.79,-471.22 292.79,-471.22"/>
<text xml:space="preserve" text-anchor="middle" x="196.21" y="-451.67" font-family="Helvetica,sans-Serif" font-size="13.00">Mask dynamic parameters</text>
<text xml:space="preserve" text-anchor="middle" x="196.21" y="-436.67" font-family="Helvetica,sans-Serif" font-size="13.00">(IPs, ports, numbers become &lt;*&gt;)</text>
</g>
<!-- t1&#45;&gt;t2 -->
<g id="edge2" class="edge">
<title>t1&#45;&gt;t2</title>
<path fill="none" stroke="#57606a" d="M196.21,-503.98C196.21,-496.78 196.21,-488.18 196.21,-480"/>
<polygon fill="#57606a" stroke="#57606a" points="198.66,-480.2 196.21,-473.2 193.76,-480.2 198.66,-480.2"/>
</g>
<!-- t3 -->
<g id="node4" class="node">
<title>t3</title>
<path fill="#f6f8fa" stroke="#57606a" d="M284.54,-393.82C284.54,-393.82 107.88,-393.82 107.88,-393.82 101.88,-393.82 95.87,-387.82 95.87,-381.82 95.87,-381.82 95.87,-369.82 95.87,-369.82 95.87,-363.82 101.87,-357.82 107.87,-357.82 107.87,-357.82 284.54,-357.82 284.54,-357.82 290.54,-357.82 296.54,-363.82 296.54,-369.82 296.54,-369.82 296.54,-381.82 296.54,-381.82 296.54,-387.82 290.54,-393.82 284.54,-393.82"/>
<text xml:space="preserve" text-anchor="middle" x="196.21" y="-370.97" font-family="Helvetica,sans-Serif" font-size="13.00">Traverse prefix tree (depth = 4)</text>
</g>
<!-- t2&#45;&gt;t3 -->
<g id="edge3" class="edge">
<title>t2&#45;&gt;t3</title>
<path fill="none" stroke="#57606a" d="M196.21,-426.66C196.21,-418.96 196.21,-410.19 196.21,-402.18"/>
<polygon fill="#57606a" stroke="#57606a" points="198.66,-402.39 196.21,-395.39 193.76,-402.39 198.66,-402.39"/>
</g>
<!-- match -->
<g id="node5" class="node">
<title>match</title>
<polygon fill="#fff8c5" stroke="#9a6700" points="196.21,-324.82 109.51,-296.44 196.21,-268.06 282.91,-296.44 196.21,-324.82"/>
<text xml:space="preserve" text-anchor="middle" x="196.21" y="-298.74" font-family="Helvetica,sans-Serif" font-size="11.00">Matches existing</text>
<text xml:space="preserve" text-anchor="middle" x="196.21" y="-285.99" font-family="Helvetica,sans-Serif" font-size="11.00">cluster?</text>
</g>
<!-- t3&#45;&gt;match -->
<g id="edge4" class="edge">
<title>t3&#45;&gt;match</title>
<path fill="none" stroke="#57606a" d="M196.21,-357.65C196.21,-350.5 196.21,-341.92 196.21,-333.5"/>
<polygon fill="#57606a" stroke="#57606a" points="198.66,-333.72 196.21,-326.72 193.76,-333.72 198.66,-333.72"/>
</g>
<!-- known -->
<g id="node6" class="node">
<title>known</title>
<path fill="#dafbe1" stroke="#1a7f37" d="M167.67,-223.31C167.67,-223.31 24.75,-223.31 24.75,-223.31 18.75,-223.31 12.75,-217.31 12.75,-211.31 12.75,-211.31 12.75,-190.91 12.75,-190.91 12.75,-184.91 18.75,-178.91 24.75,-178.91 24.75,-178.91 167.67,-178.91 167.67,-178.91 173.67,-178.91 179.67,-184.91 179.67,-190.91 179.67,-190.91 179.67,-211.31 179.67,-211.31 179.67,-217.31 173.67,-223.31 167.67,-223.31"/>
<text xml:space="preserve" text-anchor="middle" x="96.21" y="-203.76" font-family="Helvetica,sans-Serif" font-size="13.00">Update cluster frequency</text>
<text xml:space="preserve" text-anchor="middle" x="96.21" y="-188.76" font-family="Helvetica,sans-Serif" font-size="13.00">(normal traffic)</text>
</g>
<!-- match&#45;&gt;known -->
<g id="edge5" class="edge">
<title>match&#45;&gt;known</title>
<path fill="none" stroke="#57606a" d="M174.51,-275.19C160.11,-261.75 141.04,-243.95 125.32,-229.28"/>
<polygon fill="#57606a" stroke="#57606a" points="127.15,-227.64 120.36,-224.65 123.81,-231.22 127.15,-227.64"/>
<text xml:space="preserve" text-anchor="middle" x="157.46" y="-241.61" font-family="Helvetica,sans-Serif" font-size="11.00">yes</text>
</g>
<!-- newc -->
<g id="node9" class="node">
<title>newc</title>
<path fill="#f6f8fa" stroke="#57606a" d="M375.54,-223.31C375.54,-223.31 216.88,-223.31 216.88,-223.31 210.88,-223.31 204.88,-217.31 204.88,-211.31 204.88,-211.31 204.88,-190.91 204.88,-190.91 204.88,-184.91 210.88,-178.91 216.88,-178.91 216.88,-178.91 375.54,-178.91 375.54,-178.91 381.54,-178.91 387.54,-184.91 387.54,-190.91 387.54,-190.91 387.54,-211.31 387.54,-211.31 387.54,-217.31 381.54,-223.31 375.54,-223.31"/>
<text xml:space="preserve" text-anchor="middle" x="296.21" y="-203.76" font-family="Helvetica,sans-Serif" font-size="13.00">Create new cluster template</text>
<text xml:space="preserve" text-anchor="middle" x="296.21" y="-188.76" font-family="Helvetica,sans-Serif" font-size="13.00">(microsecond latency)</text>
</g>
<!-- match&#45;&gt;newc -->
<g id="edge8" class="edge">
<title>match&#45;&gt;newc</title>
<path fill="none" stroke="#57606a" d="M217.91,-275.19C232.31,-261.75 251.38,-243.95 267.1,-229.28"/>
<polygon fill="#57606a" stroke="#57606a" points="268.61,-231.22 272.06,-224.65 265.27,-227.64 268.61,-231.22"/>
<text xml:space="preserve" text-anchor="middle" x="261.17" y="-241.61" font-family="Helvetica,sans-Serif" font-size="11.00">no</text>
</g>
<!-- surge -->
<g id="node7" class="node">
<title>surge</title>
<polygon fill="#fff8c5" stroke="#9a6700" points="96.21,-145.91 10.26,-117.53 96.21,-89.15 182.16,-117.53 96.21,-145.91"/>
<text xml:space="preserve" text-anchor="middle" x="96.21" y="-119.83" font-family="Helvetica,sans-Serif" font-size="11.00">Sudden surge in</text>
<text xml:space="preserve" text-anchor="middle" x="96.21" y="-107.08" font-family="Helvetica,sans-Serif" font-size="11.00">rare cluster?</text>
</g>
<!-- known&#45;&gt;surge -->
<g id="edge6" class="edge">
<title>known&#45;&gt;surge</title>
<path fill="none" stroke="#57606a" d="M96.21,-178.68C96.21,-171.32 96.21,-162.87 96.21,-154.67"/>
<polygon fill="#57606a" stroke="#57606a" points="98.66,-154.79 96.21,-147.79 93.76,-154.79 98.66,-154.79"/>
</g>
<!-- alert -->
<g id="node8" class="node">
<title>alert</title>
<path fill="#ffebe9" stroke="#cf222e" d="M180.42,-44.4C180.42,-44.4 12,-44.4 12,-44.4 6,-44.4 0,-38.4 0,-32.4 0,-32.4 0,-12 0,-12 0,-6 6,0 12,0 12,0 180.42,0 180.42,0 186.42,0 192.42,-6 192.42,-12 192.42,-12 192.42,-32.4 192.42,-32.4 192.42,-38.4 186.42,-44.4 180.42,-44.4"/>
<text xml:space="preserve" text-anchor="middle" x="96.21" y="-24.85" font-family="Helvetica,sans-Serif" font-size="13.00">FIRE ANOMALY ALERT!</text>
<text xml:space="preserve" text-anchor="middle" x="96.21" y="-9.85" font-family="Helvetica,sans-Serif" font-size="13.00">possible evasion / parser drift</text>
</g>
<!-- surge&#45;&gt;alert -->
<g id="edge7" class="edge">
<title>surge&#45;&gt;alert</title>
<path fill="none" stroke="#57606a" d="M96.21,-88.78C96.21,-77.56 96.21,-64.59 96.21,-53.16"/>
<polygon fill="#57606a" stroke="#57606a" points="98.66,-53.28 96.21,-46.28 93.76,-53.28 98.66,-53.28"/>
<text xml:space="preserve" text-anchor="middle" x="104.46" y="-62.7" font-family="Helvetica,sans-Serif" font-size="11.00">yes</text>
</g>
</g>
</svg>
